<?xml version="1.0" standalone="no"?>
<!DOCTYPE svg PUBLIC "-//W3C//DTD SVG 20010904//EN"
 "http://www.w3.org/TR/2001/REC-SVG-20010904/DTD/svg10.dtd">
<svg version="1.0" xmlns="http://www.w3.org/2000/svg"
 width="256.000000pt" height="256.000000pt" viewBox="0 0 256.000000 256.000000"
 preserveAspectRatio="xMidYMid meet">
<metadata>
Created by potrace 1.11, written by Peter Selinger 2001-2013
</metadata>
<g transform="translate(0.000000,256.000000) scale(0.100000,-0.100000)"
fill="#000000" stroke="none">
<path d="M1195 1894 c-178 -23 -312 -63 -480 -144 -197 -95 -484 -298 -618
-438 l-39 -40 64 -53 c292 -243 635 -423 923 -485 107 -22 313 -22 420 0 212
45 448 150 669 297 131 87 346 255 353 275 5 15 -173 156 -332 263 -231 154
-493 270 -689 305 -89 16 -224 26 -271 20z m193 -99 c232 -55 402 -262 402
-489 0 -188 -108 -359 -281 -446 -100 -49 -171 -64 -284 -57 -281 15 -494 231
-495 500 0 147 47 253 158 360 130 124 321 174 500 132z m512 -171 c146 -78
458 -291 460 -315 0 -11 -138 -116 -270 -204 -130 -86 -346 -203 -356 -192 -3
3 10 26 29 51 76 99 112 212 111 351 -2 134 -39 234 -141 373 l-17 24 40 -17
c21 -9 86 -41 144 -71z m-1164 -7 c-63 -94 -91 -190 -91 -312 0 -132 27 -217
100 -325 45 -66 50 -78 31 -70 -54 20 -227 112 -309 164 -102 64 -277 194
-277 205 0 11 144 130 247 204 130 94 304 196 335 197 3 0 -13 -28 -36 -63z"/>
<path d="M1174 1626 c-103 -26 -195 -101 -237 -195 -29 -64 -29 -187 1 -253
29 -66 91 -129 159 -164 53 -27 66 -29 163 -29 89 0 112 4 151 23 119 59 193
170 193 291 1 99 -26 164 -93 232 -88 88 -220 125 -337 95z"/>
</g>
</svg>
