<?xml version="1.0" encoding="utf-8"?>
<!-- Generator: Adobe Illustrator 22.0.0, SVG Export Plug-In . SVG Version: 6.00 Build 0)  -->
<svg version="1.1" id="Слой_1" xmlns="http://www.w3.org/2000/svg" xmlns:xlink="http://www.w3.org/1999/xlink" x="0px" y="0px"
	 viewBox="0 0 383.7 269.1" style="enable-background:new 0 0 383.7 269.1;" xml:space="preserve">
<style type="text/css">
	.st0{fill:#FFFFFF;}
</style>
<path class="st0" d="M306.5,89.4c0-23.9,0.1-47.8-0.4-71.6c-0.2-10.6-8.4-17.2-18.9-17.2c-38.8,0-77.7,0-116.5,0v0H55.5
	c-14.6,0-21.6,7-21.6,21.5c0,48.3,0.1,96.5,0.1,144.8c0,17.2,6,23.4,23.3,23.5c38.8,0.1,77.7,0.1,116.5,0.1c36.4,0,72.9,0,109.3,0
	c16.7,0,23.3-6.8,23.3-23.6C306.5,141.1,306.5,115.2,306.5,89.4z M65.1,46.7c-6.6-0.1-12.6-6.5-12.6-13.3c0-6.5,7-13.7,13.4-13.9
	c6.9-0.1,13,6.2,13,13.6C78.8,40.9,72.8,46.8,65.1,46.7z M247.1,96.1c-16.2,13.5-33.6,24.9-54,31.2c-15.8,4.9-31.4,4-46.8-1.6
	c-17.4-6.3-32.8-16.1-46.8-28c-1.8-1.5-4.2-2.6-1.1-5.4c18.2-16.5,37.7-30.7,62.5-35.7c1.9-0.4,3.8-0.8,5.7-1c2.1-0.2,4.3,0,6.5,0
	c10.6-0.3,20.5,2.4,30.1,6.3c16,6.5,30.1,16,43.4,26.9C249.6,91.2,250.7,93.1,247.1,96.1z"/>
<path class="st0" d="M380.9,133.8c0.1,10.7-5.2,15.9-17,10.6c-12.6-5.6-25.7-11.1-40-10.7c-4.1,0.1-4.8-1.8-4.7-5.3
	c0.1-13.3,0.1-26.6,0.1-39.8c0-13.3,0-26.6,0-39.8c0-3.6,0.1-7,5-7c14.1-0.2,26.4-6.5,39-11.6c12.5-5,17-2.2,17.1,11.1
	C380.5,72.1,380.5,103,380.9,133.8z"/>
<path class="st0" d="M159.7,267.8c-13-0.9-25.9,1.1-38.9-0.5c-3.3-0.4-4.8-1.8-6.4-4.6c-11.1-19-22.5-37.8-34-56.5
	c-2.9-4.8-1.1-6,3.5-6c6.5,0,13,0,19.5,0v0.1h5.8c18.1,0,18,0.1,26.9,15.9c8.4,15,17.2,29.8,26.1,44.4
	C164.8,264.8,165,268.2,159.7,267.8z"/>
<path class="st0" d="M13.7,71.3c-0.5,0-1,0-1.4,0.1C0,73.9,0,73.9,0,61c0-7.4,0-14.9,0-22.3c0-6.1,2.3-7.9,7.8-5.9
	c3.8,1.4,7.2,3.5,11.4,4.1c2.7,0.4,3.3,3,3.3,5.6c-0.1,3.6,0,7.2,0,10.8c0,2.6-0.1,5.3,0,7.9C22.9,67.5,20.8,71.5,13.7,71.3z"/>
<path class="st0" d="M172.7,61c-18.7-0.1-34.2,14.6-33.9,32.1c0.3,17.4,15.6,31.7,33.8,31.6c18.3-0.1,33.5-14.6,33.5-31.8
	C206,75.5,191,61.1,172.7,61z M172.3,113.7c-12.2-0.1-22.2-9.5-22.2-20.9c0-11.6,10.6-21.5,22.8-21.2c12.2,0.3,21.9,9.8,21.7,21.4
	C194.5,104.6,184.6,113.8,172.3,113.7z"/>
<path class="st0" d="M238.5,95.6c-10.7,8.3-21.8,15.7-35.9,22c5.5-8.3,9.2-15.8,9.1-24.6c-0.1-9-3.1-16.9-8.3-24.2
	c13.1,5.1,24.5,12.6,35.3,21C242,92.3,241.2,93.6,238.5,95.6z"/>
<path class="st0" d="M141.2,117c-10.2-3.7-18.3-9.1-26.3-14.6c-11.2-7.8-11.1-7.9-0.3-16.4c7.9-6.1,16.1-11.9,25.9-16.3
	C130.6,88.4,130.7,97.7,141.2,117z"/>
</svg>
