<?xml version="1.0" encoding="utf-8"?>
<!-- Generator: Adobe Illustrator 22.0.0, SVG Export Plug-In . SVG Version: 6.00 Build 0)  -->
<svg version="1.1" id="Слой_1" xmlns="http://www.w3.org/2000/svg" xmlns:xlink="http://www.w3.org/1999/xlink" x="0px" y="0px"
	 viewBox="0 0 192.9 385.9" style="enable-background:new 0 0 192.9 385.9;" xml:space="preserve">
<style type="text/css">
	.st0{fill:#FFFFFF;}
</style>
<g>
	<path class="st0" d="M172.7,306.2c10.6-0.2,17.2-8.4,17.2-18.9V55.6c0-14.6-7-21.6-21.5-21.6c-48.3,0-96.5,0.1-144.8,0.1
		c-17.2,0-23.4,6-23.5,23.3C0,96.2,0,135.1,0,173.9v109.3c0,16.7,6.8,23.3,23.6,23.3c25.8,0.1,51.7,0.1,77.5,0.1
		C125,306.6,148.9,306.7,172.7,306.2z M68.1,203c-17.4-6.3-32.8-16.1-46.8-28c-1.8-1.5-4.2-2.6-1.1-5.4
		c18.2-16.5,37.7-30.7,62.5-35.7c1.9-0.4,3.8-0.8,5.7-1c2.1-0.2,4.3,0,6.5,0c10.6-0.3,20.5,2.4,30.1,6.3c16,6.5,30.1,16,43.4,26.9
		c3,2.4,4.1,4.3,0.5,7.3c-16.2,13.5-33.6,24.9-54,31.2C99.1,209.5,83.5,208.6,68.1,203z"/>
	<path class="st0" d="M63,194.3c-10.2-3.7-18.3-9.1-26.3-14.6c-11.2-7.8-11.1-7.9-0.3-16.4c7.9-6.1,16.1-11.9,25.9-16.3
		C52.4,165.7,52.5,175,63,194.3z"/>
	<path class="st0" d="M124.4,194.9c5.5-8.3,9.2-15.8,9.1-24.6c-0.1-9-3.1-16.9-8.3-24.2c13.1,5.1,24.5,12.6,35.3,21
		c3.3,2.5,2.5,3.8-0.2,5.8C149.6,181.2,138.5,188.6,124.4,194.9z"/>
	<path class="st0" d="M127.9,170.2c-0.1-17.4-15.1-31.8-33.4-31.9c-18.7-0.1-34.2,14.6-33.9,32.1c0.3,17.4,15.6,31.7,33.8,31.6
		C112.7,201.9,127.9,187.4,127.9,170.2z M74.2,169.4c0.1-12.2,9.5-22.2,20.9-22.2c11.6,0,21.5,10.6,21.2,22.8
		c-0.3,12.2-9.8,21.9-21.4,21.7C83.3,191.6,74.1,181.7,74.2,169.4z"/>
</g>
<path class="st0" d="M55.4,381.5c-10.7,0.1-15.9-5.2-10.6-17c5.6-12.6,11.1-25.7,10.7-40c-0.1-4.1,1.8-4.8,5.3-4.7
	c13.3,0.1,26.6,0.1,39.8,0.1c13.3,0,26.6,0,39.8,0c3.6,0,7,0.1,7,5c0.2,14.1,6.5,26.4,11.6,39c5,12.5,2.2,17-11.1,17.1
	C117.1,381.1,86.2,381.1,55.4,381.5z"/>
<path class="st0" d="M117.9,14.3c0-0.5,0-1-0.1-1.4c-2.5-12.3-2.5-12.3,10.4-12.3c7.4,0,14.9,0,22.3,0c6.1,0,7.9,2.3,5.9,7.8
	c-1.4,3.8-3.5,7.2-4.1,11.4c-0.4,2.7-3,3.3-5.6,3.3c-3.6-0.1-7.2,0-10.8,0c-2.6,0-5.3-0.1-7.9,0C121.7,23.5,117.7,21.4,117.9,14.3z"
	/>
</svg>
